<?xml version="1.0" encoding="iso-8859-1"?>
<!-- Generator: Adobe Illustrator 19.0.0, SVG Export Plug-In . SVG Version: 6.00 Build 0)  -->
<svg version="1.1" id="Layer_1" xmlns="http://www.w3.org/2000/svg" xmlns:xlink="http://www.w3.org/1999/xlink" x="0px" y="0px"
	 viewBox="0 0 455 455" style="enable-background:new 0 0 455 455;" xml:space="preserve">
<g>
	<polygon style="fill:#46F8FF;" points="285.784,111.716 285.784,0 227.5,0 227.5,253.068 270.104,198.291 293.784,216.709 
		246.503,277.5 293.784,338.291 270.104,356.709 227.5,301.932 227.5,455 397.5,455 397.5,111.716 	"/>
	<polygon style="fill:#9BFBFF;" points="184.896,356.709 161.215,338.291 208.497,277.5 161.215,216.709 184.896,198.291 
		227.5,253.068 227.5,0 57.5,0 57.5,455 227.5,455 227.5,301.932 	"/>
	<polygon style="fill:#00D7DF;" points="397.5,111.716 285.784,0 285.784,111.716 	"/>
	<polygon style="fill:#005ECE;" points="161.215,216.709 208.497,277.5 161.215,338.291 184.896,356.709 227.5,301.932 
		270.104,356.709 293.784,338.291 246.503,277.5 293.784,216.709 270.104,198.291 227.5,253.068 184.896,198.291 	"/>
</g>
<g>
</g>
<g>
</g>
<g>
</g>
<g>
</g>
<g>
</g>
<g>
</g>
<g>
</g>
<g>
</g>
<g>
</g>
<g>
</g>
<g>
</g>
<g>
</g>
<g>
</g>
<g>
</g>
<g>
</g>
</svg>
